<?xml version="1.0" standalone="no"?>
<!DOCTYPE svg PUBLIC "-//W3C//DTD SVG 20010904//EN"
 "http://www.w3.org/TR/2001/REC-SVG-20010904/DTD/svg10.dtd">
<svg version="1.0" xmlns="http://www.w3.org/2000/svg"
 width="512.000000pt" height="512.000000pt" viewBox="0 0 512.000000 512.000000"
 preserveAspectRatio="xMidYMid meet">

<g transform="translate(0.000000,512.000000) scale(0.100000,-0.100000)"
fill="#000000" stroke="none">
<path d="M2665 4176 c-40 -17 -82 -67 -95 -114 -5 -20 -10 -89 -10 -153 l0
-116 -92 -5 c-108 -6 -174 -33 -227 -93 -18 -20 -63 -101 -100 -180 -79 -164
-90 -175 -191 -175 l-60 0 0 263 c0 293 -3 309 -71 355 -33 23 -38 23 -245 20
-211 -3 -213 -3 -239 -28 -54 -50 -55 -58 -55 -345 l0 -265 -115 0 -115 0 0
268 c0 249 -1 269 -20 300 -41 67 -62 72 -286 72 -192 0 -203 -1 -235 -23 -66
-43 -69 -61 -69 -353 l0 -262 -67 -7 c-131 -14 -175 -53 -260 -232 -137 -290
-137 -274 -25 -951 45 -272 82 -500 82 -507 0 -8 -16 -18 -35 -24 -91 -25
-135 -94 -135 -212 1 -302 190 -489 497 -489 50 0 67 4 87 23 36 31 42 67 17
98 -18 24 -28 26 -120 32 -143 9 -224 48 -280 136 -43 69 -70 238 -40 257 6 3
65 7 132 8 118 2 125 3 232 46 99 39 118 43 195 43 75 1 95 -4 175 -36 120
-49 181 -60 290 -55 73 4 107 12 182 42 176 70 245 70 418 0 76 -32 105 -38
186 -42 109 -5 169 6 272 49 150 63 229 61 400 -7 75 -30 109 -38 182 -42 109
-5 170 6 290 55 79 32 100 37 175 36 74 0 97 -4 178 -36 124 -50 180 -60 287
-54 75 4 108 12 200 47 98 39 119 43 195 43 75 1 96 -4 175 -36 126 -50 165
-59 269 -57 50 1 97 1 105 1 23 -2 10 -186 -16 -236 -29 -55 -88 -109 -148
-137 l-50 -23 -1818 -5 c-1786 -5 -1819 -5 -1833 -24 -20 -28 -17 -69 5 -97
l19 -24 1779 -3 c1053 -1 1805 2 1845 7 127 18 236 86 307 192 54 81 74 153
75 274 1 108 -5 127 -57 183 -41 42 -89 54 -182 46 -41 -4 -75 -3 -75 1 0 4
122 214 272 468 149 254 277 477 284 496 38 104 -16 224 -121 272 -27 12 -64
19 -112 19 l-71 0 -4 134 c-3 115 -6 137 -22 155 -26 28 -79 28 -106 -1 -18
-20 -20 -35 -20 -155 l0 -133 -129 0 c-153 0 -183 5 -213 35 -13 13 -95 177
-182 365 -88 188 -173 362 -188 386 -32 50 -109 104 -149 104 -33 0 -66 -27
-74 -61 -7 -29 31 -83 65 -94 17 -6 70 -80 70 -98 0 -4 -228 -7 -507 -7 -489
0 -509 -1 -541 -20 -63 -39 -72 -67 -72 -231 0 -135 2 -149 23 -180 47 -72 21
-69 712 -69 l621 0 43 -89 c47 -98 73 -127 141 -163 44 -22 53 -23 352 -26
l308 -3 21 -27 c27 -34 21 -62 -29 -144 l-39 -63 -854 -5 c-836 -5 -855 -5
-889 -25 -19 -12 -43 -35 -53 -53 -32 -55 -24 -108 33 -221 l50 -101 -1460 0
c-803 0 -1460 3 -1460 8 0 4 -23 144 -50 312 -28 168 -50 321 -50 341 0 19 7
60 16 90 22 74 123 289 148 316 l21 21 855 7 c784 6 858 8 896 25 79 34 110
73 189 236 52 108 82 158 101 171 26 17 68 18 572 23 524 5 544 6 558 24 21
29 18 80 -7 102 -18 16 -40 19 -164 22 l-142 3 -58 135 c-51 119 -63 139 -112
184 -36 33 -71 55 -105 65 -64 19 -212 19 -253 1z m242 -161 c25 -19 88 -128
112 -197 l10 -28 -160 0 -159 0 0 109 c0 60 3 117 6 126 10 26 152 18 191 -10z
m-2007 -290 l0 -105 -155 0 -155 0 0 105 0 105 155 0 155 0 0 -105z m840 0 l0
-105 -155 0 -155 0 0 105 0 105 155 0 155 0 0 -105z m2226 -460 c24 -52 44
-97 44 -100 0 -3 -254 -5 -565 -5 l-565 0 0 100 0 100 521 0 520 0 45 -95z
m814 -935 c0 -5 -30 -61 -67 -124 l-68 -116 -652 0 -653 0 -60 120 c-33 66
-60 122 -60 125 0 3 351 5 780 5 491 0 780 -4 780 -10z"/>
<path d="M610 2990 c-27 -27 -26 -81 1 -106 22 -20 135 -32 184 -20 62 16 85
84 42 124 -20 19 -35 22 -115 22 -79 0 -95 -3 -112 -20z"/>
<path d="M1050 2990 c-27 -27 -26 -81 1 -106 18 -16 37 -19 116 -19 88 0 96 2
114 24 26 32 24 73 -4 99 -20 19 -35 22 -115 22 -79 0 -95 -3 -112 -20z"/>
<path d="M1490 2988 c-25 -27 -26 -69 -1 -99 18 -22 26 -24 114 -24 110 0 137
14 137 72 0 59 -26 73 -135 73 -84 0 -96 -2 -115 -22z"/>
<path d="M1932 2987 c-41 -44 -19 -107 43 -123 49 -12 162 0 184 20 27 25 28
79 1 106 -17 17 -33 20 -113 20 -85 0 -96 -2 -115 -23z"/>
<path d="M2371 2984 c-26 -34 -27 -64 -1 -92 27 -29 56 -35 140 -30 82 4 113
26 113 79 0 54 -29 69 -138 69 -89 0 -95 -1 -114 -26z"/>
<path d="M412 2677 c-31 -33 -29 -80 4 -106 22 -17 41 -21 109 -21 100 0 135
19 135 75 0 59 -28 75 -135 75 -83 0 -94 -2 -113 -23z"/>
<path d="M852 2677 c-29 -31 -28 -72 3 -102 22 -23 32 -25 108 -25 102 0 137
19 137 76 0 60 -25 74 -133 74 -85 0 -96 -2 -115 -23z"/>
<path d="M1291 2674 c-26 -33 -27 -65 -2 -95 17 -21 29 -24 105 -28 94 -3 129
9 145 52 10 28 -5 74 -29 87 -10 6 -59 10 -109 10 -85 0 -91 -1 -110 -26z"/>
<path d="M1735 2675 c-14 -13 -25 -31 -25 -39 0 -28 22 -64 47 -75 31 -14 155
-14 187 0 51 23 55 103 7 128 -11 6 -58 11 -106 11 -78 0 -88 -2 -110 -25z"/>
<path d="M2187 2689 c-45 -26 -39 -106 9 -128 32 -14 156 -14 187 0 25 11 47
47 47 75 0 8 -11 26 -25 39 -22 23 -32 25 -112 25 -48 0 -96 -5 -106 -11z"/>
<path d="M618 2376 c-25 -19 -37 -57 -26 -85 15 -42 37 -50 131 -51 80 0 90 2
112 25 14 13 25 36 25 50 0 14 -11 37 -25 50 -22 23 -32 25 -112 25 -56 -1
-94 -5 -105 -14z"/>
<path d="M1052 2367 c-29 -31 -29 -77 1 -105 20 -19 35 -22 109 -22 103 0 138
19 138 75 0 56 -35 75 -140 75 -78 0 -89 -2 -108 -23z"/>
<path d="M1496 2369 c-19 -15 -26 -30 -26 -54 0 -55 35 -75 135 -75 68 0 87 4
109 21 34 27 36 77 3 107 -20 19 -35 22 -109 22 -71 0 -90 -3 -112 -21z"/>
<path d="M1935 2365 c-14 -13 -25 -36 -25 -50 0 -14 11 -37 25 -50 22 -23 32
-25 113 -25 80 0 91 2 110 23 29 31 29 80 0 107 -18 17 -35 20 -110 20 -81 0
-91 -2 -113 -25z"/>
<path d="M2375 2365 c-14 -13 -25 -36 -25 -50 0 -14 11 -37 25 -50 22 -23 32
-25 112 -25 94 1 116 9 131 51 11 28 -1 66 -26 85 -11 9 -49 13 -105 14 -80 0
-90 -2 -112 -25z"/>
</g>
</svg>
